<svg xmlns="http://www.w3.org/2000/svg" viewBox="0 0 112 112" shape-rendering="crispEdges"><rect width="112" height="112" fill="#151a15"/><path d="M0 92h112v20H0z" fill="#26251e"/><path d="M6 90h100M12 97h8m68-5h13" stroke="#655e48" stroke-width="2"/><path fill="#764d5f" d="M44 24h18l10 15-8 11 17 18-10 5-19-11-5 27-9-2-4-28-19 13-7-6 20-22-3-15z"/><path fill="#cf8b83" d="M46 29h13v6H46zM45 43h17v4H45z"/><path fill="#bd6855" d="M51 51v18h4V51z"/><path d="M47 34h4v4h-4zm11 0h4v4h-4z" fill="#e7d59a"/><path d="M45 48h16v2H45z" fill="#25241f"/></svg>