<svg xmlns="http://www.w3.org/2000/svg" viewBox="0 0 112 112" shape-rendering="crispEdges"><rect width="112" height="112" fill="#151a15"/><path d="M0 92h112v20H0z" fill="#26251e"/><path d="M6 90h100M12 97h8m68-5h13" stroke="#655e48" stroke-width="2"/><path fill="#527c70" d="M32 57h38l17 13-5 10-20-5-9 17H41l5-18-19 1-8-9 13-7zM28 56 9 50l-4 7 20 12z"/><path fill="#4eabb4" d="M82 66h11v5H82z"/><path fill="#ded8aa" d="M66 62h4v4h-4z"/><path d="M47 34h4v4h-4zm11 0h4v4h-4z" fill="#e7d59a"/><path d="M45 48h16v2H45z" fill="#25241f"/></svg>